<svg width="23" height="16" viewBox="0 0 23 16" fill="none" xmlns="http://www.w3.org/2000/svg">
<path d="M4.16526 15.9991H9.47049C9.0047 15.5709 8.00686 14.4913 7.74161 13.5993H4.16526V9.23586H7.33895V6.81177H4.16526C1.72586 5.86634 1.84428 3.10286 4.16526 2.49684H6.96C7.41001 2.54532 8.36213 2.97681 8.57052 4.31491V11.8054C8.60212 12.872 9.33789 15.204 12.0284 15.9991H15.3915H18.9946C24.2524 15.2719 23.4945 9.23586 21.4577 8.07229C24.7735 4.31491 21.7893 0.0727233 18.9946 0H15.6521H9.75474C10.7589 0.678753 11.4679 1.94737 11.6968 2.49684H15.6521V6.81177H12.0284V9.23586H15.3915C17.0399 9.56554 17.2784 11.0863 17.1915 11.8054H10.9863V4.31491C10.7779 1.46416 8.61791 0.0727233 7.03106 0.0727233H3.92847C-0.926753 1.06661 -0.689924 6.27844 1.46529 8.07229C-1.92148 11.5388 1.32321 16.0719 4.16526 15.9991Z" fill="white"/>
</svg>
